<svg width="31" height="31" viewBox="0 0 31 31" fill="none" xmlns="http://www.w3.org/2000/svg">
<path d="M13.3886 13.0781C13.3886 12.4093 13.9307 11.8672 14.5995 11.8672H15.8105V10.6562C15.8105 9.98745 16.3526 9.44531 17.0214 9.44531C17.6902 9.44531 18.2324 9.98745 18.2324 10.6562V11.8672H19.4433C20.1121 11.8672 20.6542 12.4093 20.6542 13.0781C20.6542 13.7469 20.1121 14.2891 19.4433 14.2891H18.2324V15.5C18.2324 16.1688 17.6902 16.7109 17.0214 16.7109C16.3526 16.7109 15.8105 16.1688 15.8105 15.5V14.2891H14.5995C13.9307 14.2891 13.3886 13.7469 13.3886 13.0781ZM30.9615 6.35542L27.3597 20.4023C27.2224 20.938 26.7397 21.3125 26.1868 21.3125H6.05414C5.38534 21.3125 4.8432 20.7704 4.8432 20.1016C4.8432 19.595 4.8432 2.78261 4.8432 2.42188H1.21094C0.542137 2.42188 0 1.87974 0 1.21094C0 0.542137 0.542137 0 1.21094 0H6.05414C6.72294 0 7.26508 0.542137 7.26508 1.21094V4.84375H29.7885C30.579 4.84375 31.1577 5.59029 30.9615 6.35542ZM28.2279 7.26562H7.26508V18.8906H25.2471L28.2279 7.26562ZM12.1088 27.3672C12.1088 29.3703 10.4791 31 8.47602 31C6.47288 31 4.8432 29.3703 4.8432 27.3672C4.8432 25.3641 6.47288 23.7344 8.47602 23.7344C10.4791 23.7344 12.1088 25.3641 12.1088 27.3672ZM9.68695 27.3672C9.68695 26.6995 9.14373 26.1562 8.47602 26.1562C7.80831 26.1562 7.26508 26.6995 7.26508 27.3672C7.26508 28.0349 7.80831 28.5781 8.47602 28.5781C9.14373 28.5781 9.68695 28.0349 9.68695 27.3672ZM25.0108 27.3672C25.0108 29.3703 23.3811 31 21.378 31C19.3749 31 17.7452 29.3703 17.7452 27.3672C17.7452 25.3641 19.3749 23.7344 21.378 23.7344C23.3811 23.7344 25.0108 25.3641 25.0108 27.3672ZM22.5889 27.3672C22.5889 26.6995 22.0457 26.1562 21.378 26.1562C20.7103 26.1562 20.1671 26.6995 20.1671 27.3672C20.1671 28.0349 20.7103 28.5781 21.378 28.5781C22.0457 28.5781 22.5889 28.0349 22.5889 27.3672Z" fill="white"/>
</svg>
