<svg width="28" height="21" viewBox="0 0 28 21" fill="none" xmlns="http://www.w3.org/2000/svg">
<path d="M10.05 20.48C9.99 20.48 9.85 20.2 9.63 19.64L3.15 3.38C2.67 2.34 1.95 1.68 0.99 1.4C0.65 1.28 0.4 1.17 0.24 1.07C0.08 0.969999 0 0.859999 0 0.739999C0 0.519999 0.29 0.409998 0.87 0.409998L2.13 0.44C2.73 0.479999 3.2 0.499999 3.54 0.499999L5.34 0.469999C5.6 0.45 5.93 0.44 6.33 0.44C6.91 0.44 7.2 0.549999 7.2 0.769999C7.2 0.91 7.12 1.02 6.96 1.1C6.82 1.18 6.57 1.27 6.21 1.37C5.81 1.47 5.61 1.8 5.61 2.36C5.61 2.62 5.64 2.88 5.7 3.14C5.78 3.4 5.83 3.57 5.85 3.65C6.75 5.97 7.54 7.95 8.22 9.59C8.9 11.21 9.75 13.16 10.77 15.44C10.85 15.64 10.93 15.74 11.01 15.74C11.09 15.74 11.16 15.65 11.22 15.47L13.56 9.68C13.68 9.38 13.74 9.15 13.74 8.99C13.74 8.83 13.66 8.54 13.5 8.12L11.79 3.86C11.55 3.26 11.16 2.74 10.62 2.3C10.08 1.86 9.52 1.56 8.94 1.4C8.6 1.3 8.35 1.2 8.19 1.1C8.03 0.979999 7.95 0.859999 7.95 0.739999C7.95 0.519999 8.24 0.409998 8.82 0.409998L10.11 0.44C10.75 0.479999 11.26 0.499999 11.64 0.499999L13.02 0.469999C13.26 0.45 13.57 0.44 13.95 0.44C14.53 0.44 14.82 0.549999 14.82 0.769999C14.82 0.869999 14.77 0.959999 14.67 1.04C14.59 1.12 14.46 1.21 14.28 1.31C13.82 1.51 13.59 1.75 13.59 2.03C13.59 2.07 13.61 2.15 13.65 2.27C13.79 2.67 13.99 3.22 14.25 3.92C14.53 4.6 14.78 5.18 15 5.66C15.02 5.7 15.05 5.78 15.09 5.9C15.15 6 15.21 6.05 15.27 6.05C15.33 6.05 15.42 5.92 15.54 5.66C15.94 4.76 16.34 3.63 16.74 2.27C16.76 2.21 16.77 2.14 16.77 2.06C16.77 1.88 16.71 1.74 16.59 1.64C16.49 1.52 16.34 1.4 16.14 1.28C16.12 1.26 16.06 1.22 15.96 1.16C15.86 1.1 15.78 1.04 15.72 0.98C15.68 0.919999 15.66 0.849999 15.66 0.769999C15.66 0.549999 15.95 0.44 16.53 0.44L17.49 0.469999C17.61 0.489999 17.81 0.499999 18.09 0.499999L18.96 0.469999C19.32 0.429999 19.62 0.409998 19.86 0.409998C20.44 0.409998 20.73 0.519999 20.73 0.739999C20.73 1 20.4 1.2 19.74 1.34C19.14 1.48 18.72 1.64 18.48 1.82C18.24 2 17.98 2.32 17.7 2.78C17.54 3.06 17.29 3.58 16.95 4.34C16.63 5.1 16.35 5.81 16.11 6.47C16.03 6.65 15.97 6.86 15.93 7.1C15.89 7.34 15.89 7.51 15.93 7.61L19.02 15.56C19.06 15.64 19.09 15.68 19.11 15.68C19.17 15.68 19.25 15.58 19.35 15.38C20.11 13.36 21.33 9.49 23.01 3.77C23.13 3.41 23.19 3.05 23.19 2.69C23.19 1.99 22.89 1.56 22.29 1.4C21.63 1.22 21.3 1.02 21.3 0.799999C21.3 0.579999 21.59 0.469999 22.17 0.469999L24.33 0.499999C24.71 0.499999 25.22 0.479999 25.86 0.44L27.03 0.409998C27.61 0.409998 27.9 0.519999 27.9 0.739999C27.9 1 27.57 1.2 26.91 1.34C25.85 1.58 25.03 2.46 24.45 3.98L19.14 19.67C19.1 19.79 19.03 19.93 18.93 20.09C18.85 20.27 18.76 20.36 18.66 20.36C18.58 20.36 18.49 20.3 18.39 20.18C18.29 20.06 18.21 19.93 18.15 19.79C17.41 18.13 16.63 16.2 15.81 14L14.46 10.52C14.4 10.4 14.36 10.34 14.34 10.34C14.3 10.34 14.23 10.46 14.13 10.7C13.45 12.32 12.87 13.73 12.39 14.93C11.93 16.13 11.37 17.67 10.71 19.55C10.63 19.79 10.53 20 10.41 20.18C10.29 20.38 10.17 20.48 10.05 20.48Z" fill="#3C4993"/>
</svg>
